<?xml version="1.0" encoding="UTF-8" standalone="no"?>
<svg
   width="16"
   height="16"
   fill="currentColor"
   class="bi bi-camera"
   viewBox="0 0 16 16"
   version="1.1"
   id="svg2"
   sodipodi:docname="cameraHorizontal.svg"
   xml:space="preserve"
   inkscape:version="1.3.2 (091e20e, 2023-11-25, custom)"
   xmlns:inkscape="http://www.inkscape.org/namespaces/inkscape"
   xmlns:sodipodi="http://sodipodi.sourceforge.net/DTD/sodipodi-0.dtd"
   xmlns="http://www.w3.org/2000/svg"
   xmlns:svg="http://www.w3.org/2000/svg"><defs
     id="defs2" /><sodipodi:namedview
     id="namedview2"
     pagecolor="#ffffff"
     bordercolor="#000000"
     borderopacity="0.25"
     inkscape:showpageshadow="2"
     inkscape:pageopacity="0.0"
     inkscape:pagecheckerboard="0"
     inkscape:deskcolor="#d1d1d1"
     inkscape:zoom="17.567184"
     inkscape:cx="3.1308376"
     inkscape:cy="13.064131"
     inkscape:window-width="1920"
     inkscape:window-height="991"
     inkscape:window-x="-9"
     inkscape:window-y="-9"
     inkscape:window-maximized="1"
     inkscape:current-layer="svg2" /><path
     d="M 9.775499,13.989242 A 0.60550929,0.60550929 0 0 1 9.1699898,14.594751 H 1.9038769 A 0.60550929,0.60550929 0 0 1 1.2983677,13.989242 V 10.356186 A 0.60550929,0.60550929 0 0 1 1.9038769,9.7506767 H 2.6135338 A 1.8165278,1.8165278 0 0 0 3.8972136,9.2184349 L 4.3997863,8.7170733 A 0.60550929,0.60550929 0 0 1 4.8266704,8.5396594 h 1.419314 a 0.60550929,0.60550929 0 0 1 0.428095,0.1774139 L 7.1754411,9.2184349 A 1.8165278,1.8165278 0 0 0 8.4603324,9.7506767 H 9.1699898 A 0.60550929,0.60550929 0 0 1 9.775499,10.356186 Z M 1.9038769,9.1451676 A 1.2110186,1.2110186 0 0 0 0.6928585,10.356186 v 3.633056 a 1.2110186,1.2110186 0 0 0 1.2110184,1.21102 h 7.2661129 a 1.2110186,1.2110186 0 0 0 1.2110192,-1.21102 V 10.356186 A 1.2110186,1.2110186 0 0 0 9.1699898,9.1451676 H 8.4603324 A 1.2110186,1.2110186 0 0 1 7.6041416,8.7903393 L 7.1027799,8.2889776 A 1.2110186,1.2110186 0 0 0 6.2465897,7.9341497 H 4.827276 A 1.2110186,1.2110186 0 0 0 3.9710857,8.2889776 L 3.4697239,8.7903393 A 1.2110186,1.2110186 0 0 1 2.6135338,9.1451676 Z"
     id="path1"
     style="fill:#ffffff;fill-opacity:1;stroke:none;stroke-width:0.605511" /><path
     d="m 5.5369329,13.383731 a 1.5137733,1.5137733 0 1 1 0,-3.027545 1.5137733,1.5137733 0 0 1 0,3.027545 m 0,0.605511 a 2.1192826,2.1192826 0 1 0 0,-4.2385653 2.1192827,2.1192827 0 0 0 0,4.2385653 m -3.0275467,-3.3303 a 0.30275466,0.30275466 0 1 1 -0.6055093,0 0.30275466,0.30275466 0 0 1 0.6055093,0"
     id="path2"
     style="fill:#ffffff;fill-opacity:1;stroke:none;stroke-width:0.605511" /><g
     style="fill:#ffffff;fill-opacity:1"
     id="g1"
     transform="matrix(0.59138428,0,0,0.59138428,6.5543998,0.76190068)"><path
       fill-rule="evenodd"
       d="M 1,11.5 A 0.5,0.5 0 0 0 1.5,12 h 11.793 l -3.147,3.146 a 0.5006316,0.5006316 0 0 0 0.708,0.708 l 4,-4 a 0.5,0.5 0 0 0 0,-0.708 l -4,-4 A 0.5006316,0.5006316 0 0 0 10.146,7.854 L 13.293,11 H 1.5 A 0.5,0.5 0 0 0 1,11.5 m 14,-7 A 0.5,0.5 0 0 1 14.5,5 H 2.707 L 5.854,8.146 A 0.5006316,0.5006316 0 1 1 5.146,8.854 l -4,-4 a 0.5,0.5 0 0 1 0,-0.708 l 4,-4 A 0.5006316,0.5006316 0 1 1 5.854,0.854 L 2.707,4 H 14.5 A 0.5,0.5 0 0 1 15,4.5"
       id="path1-2"
       style="fill:#ffffff;fill-opacity:1" /></g></svg>
