<?xml version="1.0" encoding="UTF-8" standalone="no"?>
<svg
   width="16"
   height="16"
   fill="currentColor"
   class="bi bi-camera"
   viewBox="0 0 16 16"
   version="1.1"
   id="svg2"
   sodipodi:docname="cameraSettings.svg"
   xml:space="preserve"
   inkscape:version="1.3.2 (091e20e, 2023-11-25, custom)"
   xmlns:inkscape="http://www.inkscape.org/namespaces/inkscape"
   xmlns:sodipodi="http://sodipodi.sourceforge.net/DTD/sodipodi-0.dtd"
   xmlns="http://www.w3.org/2000/svg"
   xmlns:svg="http://www.w3.org/2000/svg"><defs
     id="defs2" /><sodipodi:namedview
     id="namedview2"
     pagecolor="#ffffff"
     bordercolor="#000000"
     borderopacity="0.25"
     inkscape:showpageshadow="2"
     inkscape:pageopacity="0.0"
     inkscape:pagecheckerboard="0"
     inkscape:deskcolor="#d1d1d1"
     inkscape:zoom="17.567184"
     inkscape:cx="3.1308376"
     inkscape:cy="-1.1100242"
     inkscape:window-width="1920"
     inkscape:window-height="991"
     inkscape:window-x="-9"
     inkscape:window-y="-9"
     inkscape:window-maximized="1"
     inkscape:current-layer="svg2" /><path
     d="M 12.180552,8.8992595 A 0.78102595,0.78102595 0 0 1 11.399526,9.680286 H 2.0272131 A 0.78102595,0.78102595 0 0 1 1.2461871,8.8992595 V 4.2131037 A 0.78102595,0.78102595 0 0 1 2.0272131,3.4320778 H 2.9425755 A 2.3430778,2.3430778 0 0 0 4.5983506,2.745556 L 5.246602,2.0988666 A 0.78102595,0.78102595 0 0 1 5.7972253,1.8700259 H 7.6279502 A 0.78102595,0.78102595 0 0 1 8.1801356,2.0988666 L 8.8268251,2.745556 a 2.3430778,2.3430778 0 0 0 1.6573379,0.6865218 h 0.915363 a 0.78102595,0.78102595 0 0 1 0.781026,0.7810259 z M 2.0272131,2.6510519 A 1.5620519,1.5620519 0 0 0 0.46516122,4.2131037 V 8.8992595 A 1.5620519,1.5620519 0 0 0 2.0272131,10.461312 H 11.399526 A 1.5620519,1.5620519 0 0 0 12.961578,8.8992595 V 4.2131037 A 1.5620519,1.5620519 0 0 0 11.399526,2.6510519 H 10.484163 A 1.5620519,1.5620519 0 0 1 9.3797916,2.1933708 L 8.733102,1.5466811 A 1.5620519,1.5620519 0 0 0 7.6287312,1.089 H 5.7980064 A 1.5620519,1.5620519 0 0 0 4.6936357,1.5466811 L 4.0469462,2.1933708 A 1.5620519,1.5620519 0 0 1 2.9425755,2.6510519 Z"
     id="path1"
     style="stroke-width:0.781027;fill:#ffffff;fill-opacity:1;stroke:none" /><path
     d="m 6.7133689,8.1182336 a 1.952565,1.952565 0 1 1 0,-3.9051299 1.952565,1.952565 0 0 1 0,3.9051299 m 0,0.7810259 a 2.7335909,2.7335909 0 1 0 0,-5.4671817 2.7335909,2.7335909 0 0 0 0,5.4671817 M 2.808239,4.6036168 a 0.39051298,0.39051298 0 1 1 -0.7810259,0 0.39051298,0.39051298 0 0 1 0.7810259,0"
     id="path2"
     style="stroke-width:0.781027;fill:#ffffff;fill-opacity:1;stroke:none" /><g
     style="fill:#ffffff;fill-opacity:1;stroke:none"
     id="g2"
     transform="matrix(0.70542561,0,0,0.70542561,5.1850926,4.6777767)"><path
       d="m 10.779609,5.3585281 c -0.292596,-0.9751895 -1.6981873,-0.9751895 -1.9907827,0 L 8.71798,5.5953599 A 1.0371904,1.0197696 0 0 1 7.2266646,6.2027636 L 7.0070409,6.0843477 C 6.0980824,5.5981461 5.1041083,6.5754253 5.5993242,7.4684203 l 0.1197303,0.2166314 c 0.3159747,0.5711824 0.016295,1.2823742 -0.6177801,1.4662671 l -0.2408775,0.069656 c -0.9918488,0.2876809 -0.9918488,1.6696642 0,1.9573442 l 0.2408775,0.06966 a 1.0371904,1.0197696 0 0 1 0.6177801,1.466268 l -0.1204388,0.215935 c -0.4945074,0.893691 0.4994667,1.870971 1.4077168,1.384072 L 7.2266646,14.196535 A 1.0371904,1.0197696 0 0 1 8.71798,14.803939 l 0.070846,0.236832 c 0.2925954,0.975189 1.698187,0.975189 1.990782,0 l 0.07085,-0.236832 a 1.0371904,1.0197696 0 0 1 1.491316,-0.607404 l 0.219624,0.118416 c 0.908959,0.486202 1.902933,-0.491078 1.407717,-1.384072 l -0.119734,-0.216636 a 1.0371904,1.0197696 0 0 1 0.61778,-1.466267 l 0.240878,-0.06966 c 0.991848,-0.287681 0.991848,-1.6696636 0,-1.9573445 L 14.467161,9.1513188 A 1.0371904,1.0197696 0 0 1 13.849381,7.6850517 L 13.969819,7.4691169 C 14.464327,6.5754253 13.470353,5.5981461 12.562103,6.0850443 L 12.34177,6.2027636 A 1.0371904,1.0197696 0 0 1 10.850455,5.5953599 Z M 9.7842174,12.24058 a 2.075798,2.0409325 0 1 1 0,-4.0818649 2.0750895,2.040236 0 0 1 0,4.0804719 z"
       id="path1-3"
       style="stroke-width:0.702488;fill:#ffffff;fill-opacity:1;stroke:none" /></g></svg>
