<?xml version="1.0" encoding="UTF-8" standalone="no"?>
<svg
   width="16"
   height="16"
   fill="currentColor"
   class="bi bi-camera"
   viewBox="0 0 16 16"
   version="1.1"
   id="svg2"
   sodipodi:docname="cameraBase.svg"
   xml:space="preserve"
   inkscape:version="1.3.2 (091e20e, 2023-11-25, custom)"
   xmlns:inkscape="http://www.inkscape.org/namespaces/inkscape"
   xmlns:sodipodi="http://sodipodi.sourceforge.net/DTD/sodipodi-0.dtd"
   xmlns="http://www.w3.org/2000/svg"
   xmlns:svg="http://www.w3.org/2000/svg"><defs
     id="defs2" /><sodipodi:namedview
     id="namedview2"
     pagecolor="#ffffff"
     bordercolor="#000000"
     borderopacity="0.25"
     inkscape:showpageshadow="2"
     inkscape:pageopacity="0.0"
     inkscape:pagecheckerboard="0"
     inkscape:deskcolor="#d1d1d1"
     inkscape:zoom="17.567184"
     inkscape:cx="3.1308376"
     inkscape:cy="13.064131"
     inkscape:window-width="1920"
     inkscape:window-height="991"
     inkscape:window-x="-9"
     inkscape:window-y="-9"
     inkscape:window-maximized="1"
     inkscape:current-layer="svg2" /><path
     d="m 14.044823,13.419998 a 0.89013086,0.89013086 0 0 1 -0.890131,0.890131 H 2.4731199 A 0.89013086,0.89013086 0 0 1 1.5829892,13.419998 V 8.0792127 A 0.89013086,0.89013086 0 0 1 2.4731199,7.1890818 H 3.5163533 A 2.6703925,2.6703925 0 0 0 5.4034309,6.4066581 L 6.1422395,5.6696298 A 0.89013086,0.89013086 0 0 1 6.7697818,5.408822 H 8.8562489 A 0.89013086,0.89013086 0 0 1 9.4855713,5.6696298 L 10.2226,6.4066581 a 2.6703925,2.6703925 0 0 0 1.888858,0.7824237 h 1.043234 a 0.89013086,0.89013086 0 0 1 0.890131,0.8901309 z M 2.4731199,6.2989512 A 1.7802617,1.7802617 0 0 0 0.6928585,8.0792127 v 5.3407853 a 1.7802617,1.7802617 0 0 0 1.7802614,1.780264 H 13.154692 a 1.7802617,1.7802617 0 0 0 1.780263,-1.780264 V 8.0792127 A 1.7802617,1.7802617 0 0 0 13.154692,6.2989512 H 12.111458 A 1.7802617,1.7802617 0 0 1 10.852812,5.7773348 L 10.115784,5.0403064 A 1.7802617,1.7802617 0 0 0 8.8571387,4.5186905 H 6.7706721 A 1.7802617,1.7802617 0 0 0 5.5120268,5.0403064 L 4.7749983,5.7773348 a 1.7802617,1.7802617 0 0 1 -1.258645,0.5216164 z"
     id="path1"
     style="fill:#ffffff;fill-opacity:1;stroke:none;stroke-width:0.890133" /><path
     d="m 7.8139055,12.529865 a 2.2253273,2.2253273 0 1 1 0,-4.4506523 2.2253273,2.2253273 0 0 1 0,4.4506523 m 0,0.890133 a 3.1154582,3.1154582 0 1 0 0,-6.2309162 3.1154583,3.1154583 0 0 0 0,6.2309162 M 3.3632508,8.5242801 a 0.44506545,0.44506545 0 1 1 -0.8901309,0 0.44506545,0.44506545 0 0 1 0.8901309,0"
     id="path2"
     style="fill:#ffffff;fill-opacity:1;stroke:none;stroke-width:0.890133" /></svg>
