<?xml version="1.0" encoding="UTF-8" standalone="no"?>
<!-- Created with Inkscape (http://www.inkscape.org/) -->

<svg
   width="100"
   height="100"
   viewBox="0 0 26.458333 26.458333"
   version="1.1"
   id="svg1"
   sodipodi:docname="focus.svg"
   inkscape:version="1.3.2 (091e20e, 2023-11-25, custom)"
   xmlns:inkscape="http://www.inkscape.org/namespaces/inkscape"
   xmlns:sodipodi="http://sodipodi.sourceforge.net/DTD/sodipodi-0.dtd"
   xmlns="http://www.w3.org/2000/svg"
   xmlns:svg="http://www.w3.org/2000/svg">
  <sodipodi:namedview
     id="namedview1"
     pagecolor="#ffffff"
     bordercolor="#000000"
     borderopacity="0.25"
     inkscape:showpageshadow="2"
     inkscape:pageopacity="0.0"
     inkscape:pagecheckerboard="0"
     inkscape:deskcolor="#d1d1d1"
     inkscape:document-units="mm"
     inkscape:zoom="4"
     inkscape:cx="43"
     inkscape:cy="41.5"
     inkscape:window-width="1278"
     inkscape:window-height="1000"
     inkscape:window-x="-7"
     inkscape:window-y="0"
     inkscape:window-maximized="0"
     inkscape:current-layer="layer1" />
  <defs
     id="defs1" />
  <g
     inkscape:groupmode="layer"
     id="layer2"
     inkscape:label="Layer 2">
    <path
       id="rect6"
       style="opacity:1;fill:#ffffff;fill-opacity:1;stroke:#ffffff;stroke-width:0.526783;stroke-opacity:1"
       d="m 1.1183168,1.0219156 c -0.047563,0 -0.085229,0.037668 -0.085229,0.085229 v 6.727975 H 2.0685526 V 2.1438807 c 0,-0.047563 0.038938,-0.086501 0.086501,-0.086501 H 7.7076373 V 1.0219156 Z m 17.6156172,0 v 1.0354646 h 5.469896 c 0.04756,0 0.0865,0.038938 0.0865,0.086501 v 5.6912384 h 1.26571 V 1.1071442 c 0,-0.047561 -0.03766,-0.085229 -0.08522,-0.085229 z M 1.0330881,18.861416 v 6.598224 c 0,0.04756 0.037668,0.08522 0.085229,0.08522 h 6.5893205 v -1.232636 c 0,-0.01182 0.00266,-0.02289 0.00382,-0.03434 H 2.1550534 c -0.047563,0 -0.086501,-0.03766 -0.086501,-0.08522 v -5.331248 z m 23.2572429,0 v 5.331243 c 0,0.04756 -0.03894,0.08522 -0.0865,0.08522 h -5.473714 c 0.0012,0.01132 0.0038,0.02265 0.0038,0.03434 v 1.232637 h 6.736879 c 0.04756,0 0.08522,-0.03766 0.08522,-0.08522 v -6.598219 z" />
  </g>
  <g
     inkscape:label="Layer 1"
     inkscape:groupmode="layer"
     id="layer1">
    <path
       id="path2"
       style="fill:#ffffff;fill-opacity:1;stroke:#ffffff;stroke-width:0.526783;stroke-opacity:1"
       d="m 13.311101,6.1547157 a 7.5331094,7.5331094 0 0 0 -7.5331943,7.5331953 7.5331094,7.5331094 0 0 0 7.5331943,7.531921 7.5331094,7.5331094 0 0 0 7.533196,-7.531921 7.5331094,7.5331094 0 0 0 -7.533196,-7.5331953 z m -0.05088,1.5328436 a 6.0297787,6.0297787 0 0 1 6.02961,6.0308807 6.0297787,6.0297787 0 0 1 -6.02961,6.028336 A 6.0297787,6.0297787 0 0 1 7.2306103,13.71844 6.0297787,6.0297787 0 0 1 13.260219,7.6875593 Z" />
    <rect
       style="opacity:1;fill:#ffffff;fill-opacity:1;stroke:#ffffff;stroke-width:0.373125;stroke-opacity:1"
       id="rect4"
       width="1.6211764"
       height="5.5579152"
       x="12.576409"
       y="-9.2630892"
       ry="0.078888938"
       transform="rotate(90)" />
    <rect
       style="opacity:1;fill:#ffffff;fill-opacity:1;stroke:#ffffff;stroke-width:0.373125;stroke-opacity:1"
       id="rect17"
       width="1.6211764"
       height="5.5579152"
       x="12.576409"
       y="-22.858955"
       ry="0.078888938"
       transform="rotate(90)" />
    <rect
       style="opacity:1;fill:#ffffff;fill-opacity:1;stroke:#ffffff;stroke-width:0.373125;stroke-opacity:1"
       id="rect18"
       width="1.6211764"
       height="5.5579152"
       x="-14.255476"
       y="-23.208126"
       ry="0.078888938"
       transform="scale(-1)" />
    <rect
       style="opacity:1;fill:#ffffff;fill-opacity:1;stroke:#ffffff;stroke-width:0.373125;stroke-opacity:1"
       id="rect19"
       width="1.6211764"
       height="5.5579152"
       x="-14.255476"
       y="-9.245903"
       ry="0.078888938"
       transform="scale(-1)" />
  </g>
</svg>
